<svg width="30" height="30" viewBox="0 0 30 30" fill="none" xmlns="http://www.w3.org/2000/svg">
<g clip-path="url(#clip0_707_437)">
<path d="M15 30C23.2843 30 30 23.2843 30 15C30 6.71573 23.2843 0 15 0C6.71573 0 0 6.71573 0 15C0 23.2843 6.71573 30 15 30Z" fill="white"/>
<path d="M18.7711 15.5872H16.0945V25.3929H12.0393V15.5872H10.1106V12.1411H12.0393V9.91107C12.0393 8.31636 12.7968 5.81921 16.1306 5.81921L19.1344 5.83178V9.17682H16.955C16.5975 9.17682 16.0948 9.35544 16.0948 10.1162V12.1443H19.1254L18.7711 15.5872Z" fill="#3B5998"/>
</g>
<defs>
<clipPath id="clip0_707_437">
<rect width="30" height="30" fill="white"/>
</clipPath>
</defs>
</svg>
