<svg width="30" height="30" viewBox="0 0 30 30" fill="none" xmlns="http://www.w3.org/2000/svg">
<g clip-path="url(#clip0_707_441)">
<circle cx="15" cy="15" r="15" fill="white"/>
<g clip-path="url(#clip1_707_441)">
<path d="M23.6022 10.1836C23.499 9.76155 23.2976 9.37678 23.0181 9.0676C22.7386 8.75842 22.3908 8.53563 22.0092 8.4214C20.6124 8 14.9906 8 14.9906 8C14.9906 8 9.36858 8.01276 7.97175 8.43416C7.5902 8.54839 7.24236 8.77119 6.96287 9.08039C6.68338 9.38958 6.48199 9.77437 6.37875 10.1964C5.95625 12.9418 5.79235 17.1252 6.39036 19.7608C6.4936 20.1828 6.695 20.5676 6.97449 20.8768C7.25398 21.186 7.60181 21.4088 7.98336 21.523C9.38018 21.9444 15.0021 21.9444 15.0021 21.9444C15.0021 21.9444 20.6239 21.9444 22.0207 21.523C22.4022 21.4088 22.7501 21.186 23.0296 20.8768C23.3091 20.5676 23.5105 20.1828 23.6138 19.7608C24.0594 17.0115 24.1967 12.8308 23.6022 10.1837V10.1836Z" fill="#FF0000"/>
<path d="M13.2014 17.9603L17.8651 14.9722L13.2014 11.9841V17.9603Z" fill="white"/>
</g>
</g>
<defs>
<clipPath id="clip0_707_441">
<rect width="30" height="30" fill="white"/>
</clipPath>
<clipPath id="clip1_707_441">
<rect width="18" height="14" fill="white" transform="translate(6 8)"/>
</clipPath>
</defs>
</svg>
